<svg xmlns="http://www.w3.org/2000/svg" viewBox="0 0 32 32" width="32" height="32">
  <defs>
    <linearGradient id="swBg" x1="0" y1="0" x2="32" y2="32" gradientUnits="userSpaceOnUse">
      <stop offset="0" stop-color="#1a2138"/>
      <stop offset="1" stop-color="#0c1020"/>
    </linearGradient>
    <linearGradient id="swMark" x1="6" y1="6" x2="26" y2="26" gradientUnits="userSpaceOnUse">
      <stop offset="0" stop-color="#a5b4fc"/>
      <stop offset="1" stop-color="#6366f1"/>
    </linearGradient>
  </defs>
  <rect width="32" height="32" rx="7.5" fill="url(#swBg)"/>
  <rect x="0.5" y="0.5" width="31" height="31" rx="7" fill="none" stroke="#6366f1" stroke-opacity="0.25"/>
  <!-- Isotipo "ciclo de renovación": símbolo de repetición (arrow-repeat) en gradiente indigo -->
  <g transform="translate(6 6) scale(1.25)" fill="url(#swMark)">
    <path d="M11.534 7h3.932a.25.25 0 0 1 .192.41l-1.966 2.36a.25.25 0 0 1-.384 0l-1.966-2.36a.25.25 0 0 1 .192-.41m-11 2h3.932a.25.25 0 0 0 .192-.41L2.692 6.23a.25.25 0 0 0-.384 0L.342 8.59A.25.25 0 0 0 .534 9"/>
    <path fill-rule="evenodd" d="M8 3c-1.552 0-2.94.707-3.857 1.818a.5.5 0 1 1-.771-.636A6.002 6.002 0 0 1 13.917 7H12.9A5.002 5.002 0 0 0 8 3M3.1 9a5.002 5.002 0 0 0 8.757 2.182.5.5 0 1 1 .771.636A6.002 6.002 0 0 1 2.083 9z"/>
  </g>
</svg>
